<mxfile host="app.diagrams.net" modified="2024-06-04T08:24:20.839Z" agent="Mozilla/5.0 (Windows NT 10.0; Win64; x64) AppleWebKit/537.36 (KHTML, like Gecko) Chrome/125.0.0.0 Safari/537.36" etag="caKyCH4eFp9H24m5O3qR" version="24.4.13" type="device">
  <diagram name="Page-1" id="DAGkSFa4JR-oGyQ9L9eq">
    <mxGraphModel dx="3000" dy="2803" grid="1" gridSize="10" guides="1" tooltips="1" connect="1" arrows="1" fold="1" page="1" pageScale="1" pageWidth="850" pageHeight="1100" math="0" shadow="0">
      <root>
        <mxCell id="0" />
        <mxCell id="1" parent="0" />
        <mxCell id="2" value="Start" style="rounded=1;absoluteArcSize=1;arcSize=14;whiteSpace=wrap;strokeWidth=2;" parent="1" vertex="1">
          <mxGeometry x="135" width="50" height="33" as="geometry" />
        </mxCell>
        <mxCell id="3" value="User inputs password" style="whiteSpace=wrap;strokeWidth=2;" parent="1" vertex="1">
          <mxGeometry x="77" y="83" width="166" height="33" as="geometry" />
        </mxCell>
        <mxCell id="4" value="Is password complex?" style="rhombus;strokeWidth=2;whiteSpace=wrap;" parent="1" vertex="1">
          <mxGeometry x="59" y="167" width="201" height="201" as="geometry" />
        </mxCell>
        <mxCell id="5" value="Reject password" style="whiteSpace=wrap;strokeWidth=2;" parent="1" vertex="1">
          <mxGeometry x="186" y="437" width="132" height="33" as="geometry" />
        </mxCell>
        <mxCell id="6" value="Accept password" style="whiteSpace=wrap;strokeWidth=2;" parent="1" vertex="1">
          <mxGeometry y="437" width="136" height="33" as="geometry" />
        </mxCell>
        <mxCell id="7" value="End" style="rounded=1;absoluteArcSize=1;arcSize=14;whiteSpace=wrap;strokeWidth=2;" parent="1" vertex="1">
          <mxGeometry x="139" y="520" width="41" height="33" as="geometry" />
        </mxCell>
        <mxCell id="8" value="" style="curved=1;startArrow=none;endArrow=block;exitX=0.4966876220703125;exitY=1.0121212583599668;entryX=0.499002295804311;entryY=0.012121258359966856;" parent="1" source="2" target="3" edge="1">
          <mxGeometry relative="1" as="geometry">
            <Array as="points" />
          </mxGeometry>
        </mxCell>
        <mxCell id="9" value="" style="curved=1;startArrow=none;endArrow=block;exitX=0.499002295804311;exitY=1.0242425167199336;entryX=0.5016635875796798;entryY=-0.0009950096927472014;" parent="1" source="3" target="4" edge="1">
          <mxGeometry relative="1" as="geometry">
            <Array as="points" />
          </mxGeometry>
        </mxCell>
        <mxCell id="10" value="No" style="curved=1;startArrow=none;endArrow=block;exitX=0.8431291160699202;exitY=1.001158301510028;entryX=0.49829552390358667;entryY=-0.011126720544063684;" parent="1" source="4" target="5" edge="1">
          <mxGeometry relative="1" as="geometry">
            <Array as="points">
              <mxPoint x="252" y="402" />
            </Array>
          </mxGeometry>
        </mxCell>
        <mxCell id="11" value="Yes" style="curved=1;startArrow=none;endArrow=block;exitX=0.16019805908943907;exitY=1.001158301510028;entryX=0.49921877243939566;entryY=-0.011126720544063684;" parent="1" source="4" target="6" edge="1">
          <mxGeometry relative="1" as="geometry">
            <Array as="points">
              <mxPoint x="68" y="402" />
            </Array>
          </mxGeometry>
        </mxCell>
        <mxCell id="12" value="" style="curved=1;startArrow=none;endArrow=block;exitX=0.49921877243939566;exitY=1.000994537815903;entryX=0.005259304511837843;entryY=0.22367008665128196;" parent="1" source="6" target="7" edge="1">
          <mxGeometry relative="1" as="geometry">
            <Array as="points">
              <mxPoint x="68" y="495" />
            </Array>
          </mxGeometry>
        </mxCell>
        <mxCell id="13" value="" style="curved=1;startArrow=none;endArrow=block;exitX=0.49829552390358667;exitY=1.000994537815903;entryX=1.0110519688303878;entryY=0.22367008665128196;" parent="1" source="5" target="7" edge="1">
          <mxGeometry relative="1" as="geometry">
            <Array as="points">
              <mxPoint x="252" y="495" />
            </Array>
          </mxGeometry>
        </mxCell>
      </root>
    </mxGraphModel>
  </diagram>
</mxfile>
